<svg width="51" height="50" viewBox="0 0 51 50" fill="none" xmlns="http://www.w3.org/2000/svg">
<g id="Edit Photo">
<circle id="Ellipse 5" cx="25.6788" cy="25" r="25" fill="url(#paint0_linear_6_722)"/>
<g id="&#240;&#159;&#166;&#134; icon &#34;camera&#34;">
<path id="Vector" d="M33.4797 16.6C32.6358 16.6 31.8611 16.11 31.4737 15.354L30.4776 13.324C29.8412 12.05 28.181 11 26.7699 11H23.6017C22.1767 11 20.5165 12.05 19.8801 13.324L18.884 15.354C18.4966 16.11 17.7218 16.6 16.8779 16.6C13.8758 16.6 11.4962 19.162 11.6899 22.186L12.4093 33.75C12.5753 36.634 14.111 39 17.9294 39H32.4283C36.2467 39 37.7685 36.634 37.9484 33.75L38.6678 22.186C38.8615 19.162 36.4819 16.6 33.4797 16.6ZM23.1036 18.35H27.2541C27.8213 18.35 28.2917 18.826 28.2917 19.4C28.2917 19.974 27.8213 20.45 27.2541 20.45H23.1036C22.5364 20.45 22.066 19.974 22.066 19.4C22.066 18.826 22.5364 18.35 23.1036 18.35ZM25.1789 33.568C22.6056 33.568 20.5026 31.454 20.5026 28.836C20.5026 26.218 22.5917 24.104 25.1789 24.104C27.766 24.104 29.855 26.218 29.855 28.836C29.855 31.454 27.7521 33.568 25.1789 33.568Z" fill="#F2F2F3"/>
</g>
</g>
<defs>
<linearGradient id="paint0_linear_6_722" x1="25.6788" y1="40" x2="57.4661" y2="7.75484" gradientUnits="userSpaceOnUse">
<stop stop-color="#6A0F56"/>
<stop offset="1" stop-color="#FC74DE"/>
</linearGradient>
</defs>
</svg>
