<svg width="60" height="60" viewBox="0 0 60 60" fill="none" xmlns="http://www.w3.org/2000/svg">
<circle cx="30" cy="30" r="30" fill="#F2F2F3"/>
<path d="M30 48C20.0707 48 12 39.9293 12 30C12 20.0707 20.0707 12 30 12C39.9293 12 48 20.0707 48 30C48 39.9293 39.9293 48 30 48ZM30 14.5116C21.4605 14.5116 14.5116 21.4605 14.5116 30C14.5116 38.5395 21.4605 45.4884 30 45.4884C38.5395 45.4884 45.4884 38.5395 45.4884 30C45.4884 21.4605 38.5395 14.5116 30 14.5116Z" fill="#3F2D3B"/>
<path d="M36.2114 36.5805C35.9938 36.5805 35.7761 36.5302 35.5752 36.3963L30.3845 33.2986C29.0952 32.5284 28.1407 30.8372 28.1407 29.347V22.4819C28.1407 21.7954 28.71 21.2261 29.3965 21.2261C30.0831 21.2261 30.6524 21.7954 30.6524 22.4819V29.347C30.6524 29.9498 31.1547 30.8372 31.6738 31.1386L36.8645 34.2363C37.4672 34.5879 37.6514 35.3582 37.2998 35.9609C37.0486 36.3628 36.63 36.5805 36.2114 36.5805Z" fill="#3F2D3B"/>
</svg>
