<svg width="96" height="81" viewBox="0 0 96 81" fill="none" xmlns="http://www.w3.org/2000/svg">
<path d="M10.2477 56.7812H12.5719L16.4586 67.4844L20.3355 56.7812H22.6695L17.3863 71H15.5211L10.2477 56.7812ZM9.07578 56.7812H11.3512L11.7613 66.6152V71H9.07578V56.7812ZM21.5563 56.7812H23.8414V71H21.1559V66.6152L21.5563 56.7812ZM29.5762 69.8281L32.4082 60.4336H35.1719L30.9336 72.6016C30.8359 72.862 30.709 73.1452 30.5527 73.4512C30.403 73.7572 30.2012 74.0469 29.9473 74.3203C29.6934 74.6003 29.3744 74.8281 28.9902 75.0039C28.6126 75.1797 28.1536 75.2676 27.6133 75.2676C27.3789 75.2676 27.1706 75.2513 26.9883 75.2188C26.806 75.1862 26.6139 75.1439 26.4121 75.0918V73.1582C26.4772 73.1647 26.5521 73.168 26.6367 73.168C26.7279 73.1745 26.806 73.1777 26.8711 73.1777C27.2487 73.1777 27.5612 73.1322 27.8086 73.041C28.056 72.9564 28.2546 72.8164 28.4043 72.6211C28.5605 72.4323 28.6908 72.1849 28.7949 71.8789L29.5762 69.8281ZM28.1797 60.4336L30.5723 68.2168L30.9922 70.9414L29.2148 71.2637L25.3965 60.4336H28.1797ZM50.8211 68.8906V71H43.6727V68.8906H50.8211ZM44.4832 56.7812V71H41.7977V56.7812H44.4832ZM55.257 60.4336V71H52.6691V60.4336H55.257ZM52.4934 57.6699C52.4934 57.2858 52.6236 56.9668 52.884 56.7129C53.1509 56.459 53.509 56.332 53.9582 56.332C54.4074 56.332 54.7622 56.459 55.0227 56.7129C55.2896 56.9668 55.423 57.2858 55.423 57.6699C55.423 58.0475 55.2896 58.3633 55.0227 58.6172C54.7622 58.8711 54.4074 58.998 53.9582 58.998C53.509 58.998 53.1509 58.8711 52.884 58.6172C52.6236 58.3633 52.4934 58.0475 52.4934 57.6699ZM60.3961 55.9902V71H57.818V55.9902H60.3961ZM67.0172 60.4336L62.4176 65.5996L59.9273 68.1289L59.107 66.127L61.0309 63.7051L63.902 60.4336H67.0172ZM64.3805 71L61.109 66.0781L62.8277 64.4082L67.3688 71H64.3805ZM73.0352 71.1953C72.2344 71.1953 71.515 71.0651 70.877 70.8047C70.2389 70.5443 69.6953 70.1829 69.2461 69.7207C68.8034 69.252 68.4616 68.7083 68.2207 68.0898C67.9863 67.4648 67.8691 66.7943 67.8691 66.0781V65.6875C67.8691 64.8737 67.9863 64.1348 68.2207 63.4707C68.4551 62.8001 68.7871 62.224 69.2168 61.7422C69.6465 61.2604 70.1608 60.8893 70.7598 60.6289C71.3587 60.3685 72.0195 60.2383 72.7422 60.2383C73.4909 60.2383 74.1517 60.3652 74.7246 60.6191C75.2975 60.8665 75.776 61.2181 76.1602 61.6738C76.5443 62.1296 76.834 62.6764 77.0293 63.3145C77.2246 63.946 77.3223 64.6458 77.3223 65.4141V66.498H69.041V64.7207H74.7832V64.5254C74.7702 64.1152 74.6921 63.7409 74.5488 63.4023C74.4056 63.0573 74.1842 62.7839 73.8848 62.582C73.5853 62.3737 73.1979 62.2695 72.7227 62.2695C72.3385 62.2695 72.0033 62.3542 71.7168 62.5234C71.4368 62.6862 71.2025 62.9206 71.0137 63.2266C70.8314 63.526 70.6947 63.8841 70.6035 64.3008C70.5124 64.7174 70.4668 65.1797 70.4668 65.6875V66.0781C70.4668 66.5208 70.5254 66.931 70.6426 67.3086C70.7663 67.6862 70.9453 68.015 71.1797 68.2949C71.4206 68.5684 71.707 68.7832 72.0391 68.9395C72.3776 69.0892 72.7617 69.1641 73.1914 69.1641C73.7318 69.1641 74.2201 69.0599 74.6562 68.8516C75.099 68.6367 75.4831 68.321 75.8086 67.9043L77.1074 69.252C76.8861 69.5775 76.5866 69.89 76.209 70.1895C75.8379 70.4889 75.3887 70.7331 74.8613 70.9219C74.334 71.1042 73.7253 71.1953 73.0352 71.1953ZM84.9613 68.1094C84.9613 67.888 84.9027 67.6895 84.7855 67.5137C84.6684 67.3379 84.447 67.1784 84.1215 67.0352C83.8025 66.8854 83.3337 66.7454 82.7152 66.6152C82.1684 66.498 81.6638 66.3516 81.2016 66.1758C80.7393 66 80.3422 65.7884 80.0102 65.541C79.6781 65.2871 79.4177 64.9909 79.2289 64.6523C79.0466 64.3073 78.9555 63.9102 78.9555 63.4609C78.9555 63.0247 79.0499 62.6146 79.2387 62.2305C79.4275 61.8398 79.7009 61.498 80.059 61.2051C80.4171 60.9056 80.8533 60.6712 81.3676 60.502C81.8819 60.3262 82.4613 60.2383 83.1059 60.2383C84.0043 60.2383 84.7758 60.3848 85.4203 60.6777C86.0714 60.9707 86.5694 61.3743 86.9145 61.8887C87.2595 62.3965 87.432 62.9694 87.432 63.6074H84.8539C84.8539 63.3275 84.7888 63.0736 84.6586 62.8457C84.5349 62.6178 84.3428 62.4355 84.0824 62.2988C83.822 62.1556 83.4932 62.084 83.0961 62.084C82.738 62.084 82.4353 62.1426 82.1879 62.2598C81.947 62.377 81.7647 62.5299 81.641 62.7188C81.5173 62.9076 81.4555 63.1159 81.4555 63.3438C81.4555 63.513 81.488 63.666 81.5531 63.8027C81.6247 63.9329 81.7387 64.0534 81.8949 64.1641C82.0512 64.2747 82.2628 64.3757 82.5297 64.4668C82.8031 64.5579 83.1384 64.6458 83.5355 64.7305C84.3233 64.8867 85.0102 65.0951 85.5961 65.3555C86.1885 65.6094 86.6508 65.9479 86.9828 66.3711C87.3148 66.7943 87.4809 67.3346 87.4809 67.9922C87.4809 68.4609 87.3799 68.8906 87.1781 69.2812C86.9763 69.6654 86.6833 70.0007 86.2992 70.2871C85.9151 70.5736 85.4561 70.7982 84.9223 70.9609C84.3884 71.1172 83.7862 71.1953 83.1156 71.1953C82.1456 71.1953 81.3253 71.0228 80.6547 70.6777C79.9841 70.3262 79.4763 69.8835 79.1312 69.3496C78.7862 68.8092 78.6137 68.2493 78.6137 67.6699H81.0844C81.1039 68.0801 81.2146 68.4089 81.4164 68.6562C81.6182 68.9036 81.8721 69.0827 82.1781 69.1934C82.4906 69.2975 82.8194 69.3496 83.1645 69.3496C83.5551 69.3496 83.8839 69.2975 84.1508 69.1934C84.4177 69.0827 84.6195 68.9362 84.7562 68.7539C84.893 68.5651 84.9613 68.3503 84.9613 68.1094Z" fill="#3F2D3B"/>
<path d="M56.88 0C53.26 0 50.02 1.82921 48 4.63538C45.98 1.82921 42.74 0 39.12 0C32.98 0 28 5.19662 28 11.6196C28 14.0932 28.38 16.3798 29.04 18.5C32.2 28.8933 41.94 35.1084 46.76 36.8129C47.44 37.0624 48.56 37.0624 49.24 36.8129C54.06 35.1084 63.8 28.8933 66.96 18.5C67.62 16.3798 68 14.0932 68 11.6196C68 5.19662 63.02 0 56.88 0Z" fill="url(#paint0_linear_6_727)"/>
<defs>
<linearGradient id="paint0_linear_6_727" x1="49.5" y1="22.5" x2="76" y2="5.5" gradientUnits="userSpaceOnUse">
<stop stop-color="#3F2D3B"/>
<stop offset="1" stop-color="#FC74DE"/>
</linearGradient>
</defs>
</svg>
