<svg width="96" height="81" viewBox="0 0 96 81" fill="none" xmlns="http://www.w3.org/2000/svg">
<path d="M24.2137 68.8906V71H17.0652V68.8906H24.2137ZM17.8758 56.7812V71H15.1902V56.7812H17.8758ZM25.4563 65.8242V65.6191C25.4563 64.8444 25.5669 64.1315 25.7883 63.4805C26.0096 62.8229 26.3319 62.2533 26.7551 61.7715C27.1783 61.2897 27.6958 60.9154 28.3078 60.6484C28.9198 60.375 29.6164 60.2383 30.3977 60.2383C31.1919 60.2383 31.8951 60.375 32.507 60.6484C33.1255 60.9154 33.6464 61.2897 34.0695 61.7715C34.4927 62.2533 34.815 62.8229 35.0363 63.4805C35.2577 64.1315 35.3684 64.8444 35.3684 65.6191V65.8242C35.3684 66.5924 35.2577 67.3053 35.0363 67.9629C34.815 68.6139 34.4927 69.1836 34.0695 69.6719C33.6464 70.1536 33.1288 70.528 32.5168 70.7949C31.9048 71.0618 31.2049 71.1953 30.4172 71.1953C29.6359 71.1953 28.9361 71.0618 28.3176 70.7949C27.6991 70.528 27.1783 70.1536 26.7551 69.6719C26.3319 69.1836 26.0096 68.6139 25.7883 67.9629C25.5669 67.3053 25.4563 66.5924 25.4563 65.8242ZM28.0344 65.6191V65.8242C28.0344 66.2865 28.0799 66.7194 28.1711 67.123C28.2622 67.5267 28.4022 67.8815 28.591 68.1875C28.7798 68.4935 29.024 68.7344 29.3234 68.9102C29.6294 69.0794 29.994 69.1641 30.4172 69.1641C30.8339 69.1641 31.1919 69.0794 31.4914 68.9102C31.7909 68.7344 32.035 68.4935 32.2238 68.1875C32.4191 67.8815 32.5624 67.5267 32.6535 67.123C32.7447 66.7194 32.7902 66.2865 32.7902 65.8242V65.6191C32.7902 65.1634 32.7447 64.737 32.6535 64.3398C32.5624 63.9362 32.4191 63.5814 32.2238 63.2754C32.035 62.9629 31.7876 62.7188 31.4816 62.543C31.1822 62.3607 30.8208 62.2695 30.3977 62.2695C29.981 62.2695 29.6229 62.3607 29.3234 62.543C29.024 62.7188 28.7798 62.9629 28.591 63.2754C28.4022 63.5814 28.2622 63.9362 28.1711 64.3398C28.0799 64.737 28.0344 65.1634 28.0344 65.6191ZM44.0621 60.4336H46.4059V70.6777C46.4059 71.6348 46.1975 72.4453 45.7809 73.1094C45.3707 73.7799 44.7945 74.2878 44.0523 74.6328C43.3102 74.9844 42.4475 75.1602 41.4645 75.1602C41.0413 75.1602 40.5823 75.1016 40.0875 74.9844C39.5992 74.8672 39.1272 74.6816 38.6715 74.4277C38.2223 74.1803 37.8479 73.8581 37.5484 73.4609L38.7105 71.9375C39.0621 72.3477 39.4592 72.6569 39.902 72.8652C40.3447 73.0801 40.8232 73.1875 41.3375 73.1875C41.8583 73.1875 42.301 73.0898 42.6656 72.8945C43.0367 72.7057 43.3199 72.4258 43.5152 72.0547C43.7171 71.6901 43.818 71.2409 43.818 70.707V62.8457L44.0621 60.4336ZM36.9234 65.8438V65.6387C36.9234 64.8314 37.0211 64.099 37.2164 63.4414C37.4117 62.7773 37.6917 62.2077 38.0563 61.7324C38.4273 61.2572 38.8733 60.8893 39.3941 60.6289C39.9215 60.3685 40.5139 60.2383 41.1715 60.2383C41.8681 60.2383 42.454 60.3652 42.9293 60.6191C43.4111 60.873 43.8082 61.2344 44.1207 61.7031C44.4397 62.1719 44.6871 62.7285 44.8629 63.373C45.0452 64.0111 45.1852 64.7142 45.2828 65.4824V66.0391C45.1917 66.7878 45.0452 67.4746 44.8434 68.0996C44.648 68.7246 44.3876 69.2715 44.0621 69.7402C43.7366 70.2025 43.3329 70.5605 42.8512 70.8145C42.3694 71.0684 41.803 71.1953 41.152 71.1953C40.5009 71.1953 39.915 71.0618 39.3941 70.7949C38.8733 70.528 38.4273 70.1536 38.0563 69.6719C37.6917 69.1901 37.4117 68.6237 37.2164 67.9727C37.0211 67.3216 36.9234 66.612 36.9234 65.8438ZM39.5016 65.6387V65.8438C39.5016 66.2995 39.5471 66.7259 39.6383 67.123C39.7294 67.5202 39.8694 67.8717 40.0582 68.1777C40.247 68.4772 40.4846 68.7116 40.7711 68.8809C41.0576 69.0501 41.3994 69.1348 41.7965 69.1348C42.3303 69.1348 42.7665 69.0241 43.1051 68.8027C43.4501 68.5749 43.7105 68.2656 43.8863 67.875C44.0686 67.4779 44.1858 67.0319 44.2379 66.5371V65.0039C44.2053 64.6133 44.1337 64.252 44.023 63.9199C43.9189 63.5879 43.7724 63.3014 43.5836 63.0605C43.3948 62.8197 43.1539 62.6309 42.8609 62.4941C42.568 62.3574 42.2197 62.2891 41.816 62.2891C41.4254 62.2891 41.0836 62.377 40.7906 62.5527C40.4977 62.722 40.2568 62.9596 40.068 63.2656C39.8792 63.5716 39.7359 63.9264 39.6383 64.3301C39.5471 64.7337 39.5016 65.1699 39.5016 65.6387ZM53.4516 65.8242V65.6191C53.4516 64.8444 53.5622 64.1315 53.7836 63.4805C54.005 62.8229 54.3272 62.2533 54.7504 61.7715C55.1736 61.2897 55.6911 60.9154 56.3031 60.6484C56.9151 60.375 57.6117 60.2383 58.393 60.2383C59.1872 60.2383 59.8904 60.375 60.5023 60.6484C61.1208 60.9154 61.6417 61.2897 62.0648 61.7715C62.488 62.2533 62.8103 62.8229 63.0316 63.4805C63.253 64.1315 63.3637 64.8444 63.3637 65.6191V65.8242C63.3637 66.5924 63.253 67.3053 63.0316 67.9629C62.8103 68.6139 62.488 69.1836 62.0648 69.6719C61.6417 70.1536 61.1241 70.528 60.5121 70.7949C59.9001 71.0618 59.2003 71.1953 58.4125 71.1953C57.6313 71.1953 56.9314 71.0618 56.3129 70.7949C55.6944 70.528 55.1736 70.1536 54.7504 69.6719C54.3272 69.1836 54.005 68.6139 53.7836 67.9629C53.5622 67.3053 53.4516 66.5924 53.4516 65.8242ZM56.0297 65.6191V65.8242C56.0297 66.2865 56.0753 66.7194 56.1664 67.123C56.2576 67.5267 56.3975 67.8815 56.5863 68.1875C56.7751 68.4935 57.0193 68.7344 57.3188 68.9102C57.6247 69.0794 57.9893 69.1641 58.4125 69.1641C58.8292 69.1641 59.1872 69.0794 59.4867 68.9102C59.7862 68.7344 60.0303 68.4935 60.2191 68.1875C60.4145 67.8815 60.5577 67.5267 60.6488 67.123C60.74 66.7194 60.7855 66.2865 60.7855 65.8242V65.6191C60.7855 65.1634 60.74 64.737 60.6488 64.3398C60.5577 63.9362 60.4145 63.5814 60.2191 63.2754C60.0303 62.9629 59.7829 62.7188 59.477 62.543C59.1775 62.3607 58.8161 62.2695 58.393 62.2695C57.9763 62.2695 57.6182 62.3607 57.3188 62.543C57.0193 62.7188 56.7751 62.9629 56.5863 63.2754C56.3975 63.5814 56.2576 63.9362 56.1664 64.3398C56.0753 64.737 56.0297 65.1634 56.0297 65.6191ZM71.6277 68.4902V60.4336H74.2254V71H71.784L71.6277 68.4902ZM71.9598 66.3027L72.7605 66.2832C72.7605 66.9928 72.6824 67.6471 72.5262 68.2461C72.3699 68.8451 72.1258 69.3659 71.7937 69.8086C71.4682 70.2448 71.0548 70.5866 70.5535 70.834C70.0522 71.0749 69.4598 71.1953 68.7762 71.1953C68.2553 71.1953 67.7801 71.1237 67.3504 70.9805C66.9207 70.8307 66.5496 70.5996 66.2371 70.2871C65.9311 69.9681 65.6935 69.5612 65.5242 69.0664C65.3549 68.5651 65.2703 67.9629 65.2703 67.2598V60.4336H67.8484V67.2793C67.8484 67.6309 67.8875 67.9238 67.9656 68.1582C68.0503 68.3926 68.1642 68.5846 68.3074 68.7344C68.4572 68.8776 68.6297 68.9818 68.825 69.0469C69.0268 69.1055 69.2417 69.1348 69.4695 69.1348C70.0945 69.1348 70.5861 69.0111 70.9441 68.7637C71.3087 68.5098 71.5691 68.1712 71.7254 67.748C71.8816 67.3184 71.9598 66.8366 71.9598 66.3027ZM81.6105 60.4336V62.2891H75.5559V60.4336H81.6105ZM77.177 57.8359H79.7648V67.9531C79.7648 68.2656 79.8072 68.5065 79.8918 68.6758C79.9764 68.8451 80.1034 68.959 80.2727 69.0176C80.4419 69.0762 80.6438 69.1055 80.8781 69.1055C81.0474 69.1055 81.2036 69.0957 81.3469 69.0762C81.4901 69.0566 81.6105 69.0371 81.7082 69.0176L81.718 70.9512C81.5031 71.0228 81.259 71.0814 80.9855 71.127C80.7186 71.1725 80.4159 71.1953 80.0773 71.1953C79.4979 71.1953 78.9901 71.0977 78.5539 70.9023C78.1177 70.7005 77.7792 70.3783 77.5383 69.9355C77.2974 69.4863 77.177 68.8939 77.177 68.1582V57.8359Z" fill="#3F2D3B"/>
<path d="M56.6143 0H51.4104C45.0056 0 41.0027 4.00298 41.0027 10.4078V18.5138H53.512C54.3326 18.5138 55.0131 19.1943 55.0131 20.0149C55.0131 20.8355 54.3326 21.516 53.512 21.516H41.0027V29.6221C41.0027 36.0269 45.0056 40.0298 51.4104 40.0298H56.5943C62.9991 40.0298 67.002 36.0269 67.002 29.6221V10.4078C67.0221 4.00298 63.0191 0 56.6143 0Z" fill="url(#paint0_linear_6_739)"/>
<path d="M32.1188 18.5134L36.2619 14.3704C36.5621 14.0702 36.7022 13.6899 36.7022 13.3096C36.7022 12.9293 36.5621 12.529 36.2619 12.2488C35.6815 11.6684 34.7208 11.6684 34.1403 12.2488L27.4353 18.9537C26.8549 19.5342 26.8549 20.4949 27.4353 21.0753L34.1403 27.7803C34.7208 28.3607 35.6815 28.3607 36.2619 27.7803C36.8423 27.1999 36.8423 26.2392 36.2619 25.6587L32.1188 21.5156H41.0054V18.5134H32.1188Z" fill="url(#paint1_linear_6_739)"/>
<defs>
<linearGradient id="paint0_linear_6_739" x1="55.6266" y1="33" x2="79.7514" y2="18.5852" gradientUnits="userSpaceOnUse">
<stop stop-color="#3F2D3B"/>
<stop offset="1" stop-color="#FF1313"/>
</linearGradient>
<linearGradient id="paint1_linear_6_739" x1="34.8777" y1="25.3352" x2="45.7835" y2="16.7683" gradientUnits="userSpaceOnUse">
<stop stop-color="#3F2D3B"/>
<stop offset="1" stop-color="#FF1313"/>
</linearGradient>
</defs>
</svg>
