<svg width="35" height="49" viewBox="0 0 35 49" fill="none" xmlns="http://www.w3.org/2000/svg">
<g id="Profile Top">
<g id="Group">
<path id="Vector" opacity="0.4" d="M17.1501 0C10.7667 0 5.57712 5.18957 5.57712 11.573C5.57712 17.8346 10.4743 22.9023 16.8577 23.1216C17.0526 23.0972 17.2476 23.0972 17.3937 23.1216H17.5156H17.5643C23.8015 22.9023 28.6987 17.8346 28.7231 11.573C28.7231 5.18957 23.5335 0 17.1501 0Z" fill="#8F407D"/>
<path id="Vector_2" d="M29.5293 29.6022C22.7317 25.0705 11.6461 25.0705 4.79974 29.6022C1.70549 31.6732 0 34.4751 0 37.4719C0 40.4687 1.70549 43.2462 4.77538 45.2928C8.18636 47.583 12.6693 48.7281 17.1523 48.7281C21.6353 48.7281 26.1183 47.583 29.5293 45.2928C32.5992 43.2218 34.3047 40.4443 34.3047 37.4231C34.2803 34.4263 32.5992 31.6488 29.5293 29.6022Z" fill="#8F407D"/>
</g>
</g>
</svg>
