<svg width="96" height="81" viewBox="0 0 96 81" fill="none" xmlns="http://www.w3.org/2000/svg">
<path d="M19.2223 67.3086C19.2223 67.0352 19.1799 66.791 19.0953 66.5762C19.0172 66.3548 18.8707 66.1562 18.6559 65.9805C18.4475 65.7982 18.1513 65.6224 17.7672 65.4531C17.3896 65.2773 16.9013 65.0951 16.3023 64.9062C15.6383 64.6979 15.0198 64.4635 14.4469 64.2031C13.874 63.9427 13.3694 63.64 12.9332 63.2949C12.5035 62.9499 12.1682 62.5527 11.9273 62.1035C11.6865 61.6478 11.566 61.1204 11.566 60.5215C11.566 59.9355 11.6897 59.4017 11.9371 58.9199C12.191 58.4382 12.5491 58.0247 13.0113 57.6797C13.4736 57.3281 14.0172 57.0579 14.6422 56.8691C15.2737 56.6803 15.9703 56.5859 16.732 56.5859C17.7867 56.5859 18.6982 56.778 19.4664 57.1621C20.2411 57.5462 20.8401 58.0671 21.2633 58.7246C21.6865 59.3822 21.898 60.1211 21.898 60.9414H19.2223C19.2223 60.4987 19.1279 60.1081 18.9391 59.7695C18.7568 59.431 18.4768 59.1641 18.0992 58.9688C17.7281 58.7734 17.2594 58.6758 16.693 58.6758C16.1461 58.6758 15.6904 58.7572 15.3258 58.9199C14.9677 59.0827 14.6975 59.304 14.5152 59.584C14.3395 59.8639 14.2516 60.1764 14.2516 60.5215C14.2516 60.7819 14.3134 61.0163 14.4371 61.2246C14.5608 61.4264 14.7464 61.6185 14.9938 61.8008C15.2411 61.9766 15.5471 62.1426 15.9117 62.2988C16.2828 62.4486 16.7125 62.5983 17.2008 62.748C17.982 62.9824 18.6656 63.2428 19.2516 63.5293C19.844 63.8158 20.3355 64.1413 20.7262 64.5059C21.1233 64.8704 21.4195 65.2806 21.6148 65.7363C21.8167 66.1921 21.9176 66.7096 21.9176 67.2891C21.9176 67.901 21.7971 68.4479 21.5563 68.9297C21.3154 69.4115 20.9703 69.8216 20.5211 70.1602C20.0719 70.4987 19.5315 70.7559 18.9 70.9316C18.275 71.1074 17.5751 71.1953 16.8004 71.1953C16.1103 71.1953 15.4267 71.1042 14.7496 70.9219C14.079 70.7331 13.4703 70.4531 12.9234 70.082C12.3766 69.7044 11.9404 69.2292 11.6148 68.6562C11.2893 68.0768 11.1266 67.3997 11.1266 66.625H13.8219C13.8219 67.0742 13.8935 67.4583 14.0367 67.7773C14.1865 68.0898 14.3948 68.347 14.6617 68.5488C14.9352 68.7441 15.2542 68.8874 15.6188 68.9785C15.9833 69.0697 16.3772 69.1152 16.8004 69.1152C17.3473 69.1152 17.7965 69.0404 18.148 68.8906C18.5061 68.7344 18.773 68.5195 18.9488 68.2461C19.1311 67.9727 19.2223 67.6602 19.2223 67.3086ZM28.6387 71.1953C27.8379 71.1953 27.1185 71.0651 26.4805 70.8047C25.8424 70.5443 25.2988 70.1829 24.8496 69.7207C24.4069 69.252 24.0651 68.7083 23.8242 68.0898C23.5898 67.4648 23.4727 66.7943 23.4727 66.0781V65.6875C23.4727 64.8737 23.5898 64.1348 23.8242 63.4707C24.0586 62.8001 24.3906 62.224 24.8203 61.7422C25.25 61.2604 25.7643 60.8893 26.3633 60.6289C26.9622 60.3685 27.623 60.2383 28.3457 60.2383C29.0944 60.2383 29.7552 60.3652 30.3281 60.6191C30.901 60.8665 31.3796 61.2181 31.7637 61.6738C32.1478 62.1296 32.4375 62.6764 32.6328 63.3145C32.8281 63.946 32.9258 64.6458 32.9258 65.4141V66.498H24.6445V64.7207H30.3867V64.5254C30.3737 64.1152 30.2956 63.7409 30.1523 63.4023C30.0091 63.0573 29.7878 62.7839 29.4883 62.582C29.1888 62.3737 28.8014 62.2695 28.3262 62.2695C27.9421 62.2695 27.6068 62.3542 27.3203 62.5234C27.0404 62.6862 26.806 62.9206 26.6172 63.2266C26.4349 63.526 26.2982 63.8841 26.207 64.3008C26.1159 64.7174 26.0703 65.1797 26.0703 65.6875V66.0781C26.0703 66.5208 26.1289 66.931 26.2461 67.3086C26.3698 67.6862 26.5488 68.015 26.7832 68.2949C27.0241 68.5684 27.3105 68.7832 27.6426 68.9395C27.9811 69.0892 28.3652 69.1641 28.7949 69.1641C29.3353 69.1641 29.8236 69.0599 30.2598 68.8516C30.7025 68.6367 31.0866 68.321 31.4121 67.9043L32.7109 69.252C32.4896 69.5775 32.1901 69.89 31.8125 70.1895C31.4414 70.4889 30.9922 70.7331 30.4648 70.9219C29.9375 71.1042 29.3288 71.1953 28.6387 71.1953ZM39.7543 60.4336V62.2891H33.6996V60.4336H39.7543ZM35.3207 57.8359H37.9086V67.9531C37.9086 68.2656 37.9509 68.5065 38.0355 68.6758C38.1202 68.8451 38.2471 68.959 38.4164 69.0176C38.5857 69.0762 38.7875 69.1055 39.0219 69.1055C39.1911 69.1055 39.3474 69.0957 39.4906 69.0762C39.6339 69.0566 39.7543 69.0371 39.852 69.0176L39.8617 70.9512C39.6469 71.0228 39.4027 71.0814 39.1293 71.127C38.8624 71.1725 38.5596 71.1953 38.2211 71.1953C37.6417 71.1953 37.1339 71.0977 36.6977 70.9023C36.2615 70.7005 35.9229 70.3783 35.682 69.9355C35.4411 69.4863 35.3207 68.8939 35.3207 68.1582V57.8359ZM46.573 60.4336V62.2891H40.5184V60.4336H46.573ZM42.1395 57.8359H44.7273V67.9531C44.7273 68.2656 44.7697 68.5065 44.8543 68.6758C44.9389 68.8451 45.0659 68.959 45.2352 69.0176C45.4044 69.0762 45.6063 69.1055 45.8406 69.1055C46.0099 69.1055 46.1661 69.0957 46.3094 69.0762C46.4526 69.0566 46.573 69.0371 46.6707 69.0176L46.6805 70.9512C46.4656 71.0228 46.2215 71.0814 45.948 71.127C45.6811 71.1725 45.3784 71.1953 45.0398 71.1953C44.4604 71.1953 43.9526 71.0977 43.5164 70.9023C43.0802 70.7005 42.7417 70.3783 42.5008 69.9355C42.2599 69.4863 42.1395 68.8939 42.1395 68.1582V57.8359ZM51.1262 60.4336V71H48.5383V60.4336H51.1262ZM48.3625 57.6699C48.3625 57.2858 48.4927 56.9668 48.7531 56.7129C49.0201 56.459 49.3781 56.332 49.8273 56.332C50.2766 56.332 50.6314 56.459 50.8918 56.7129C51.1587 56.9668 51.2922 57.2858 51.2922 57.6699C51.2922 58.0475 51.1587 58.3633 50.8918 58.6172C50.6314 58.8711 50.2766 58.998 49.8273 58.998C49.3781 58.998 49.0201 58.8711 48.7531 58.6172C48.4927 58.3633 48.3625 58.0475 48.3625 57.6699ZM56.2164 62.6895V71H53.6383V60.4336H56.0602L56.2164 62.6895ZM55.8063 65.3359H55.0445C55.051 64.5677 55.1552 63.8711 55.357 63.2461C55.5589 62.6211 55.8421 62.084 56.2066 61.6348C56.5777 61.1855 57.0172 60.8405 57.525 60.5996C58.0328 60.3587 58.5992 60.2383 59.2242 60.2383C59.732 60.2383 60.191 60.3099 60.6012 60.4531C61.0113 60.5964 61.3629 60.8242 61.6559 61.1367C61.9553 61.4492 62.1832 61.8594 62.3395 62.3672C62.5022 62.8685 62.5836 63.487 62.5836 64.2227V71H59.9859V64.2031C59.9859 63.7214 59.9143 63.3405 59.7711 63.0605C59.6344 62.7806 59.4326 62.582 59.1656 62.4648C58.9052 62.3477 58.5829 62.2891 58.1988 62.2891C57.8017 62.2891 57.4534 62.3704 57.1539 62.5332C56.8609 62.6895 56.6135 62.9076 56.4117 63.1875C56.2164 63.4674 56.0667 63.7897 55.9625 64.1543C55.8583 64.5189 55.8063 64.9128 55.8063 65.3359ZM71.6777 60.4336H74.0215V70.6777C74.0215 71.6348 73.8132 72.4453 73.3965 73.1094C72.9863 73.7799 72.4102 74.2878 71.668 74.6328C70.9258 74.9844 70.0632 75.1602 69.0801 75.1602C68.6569 75.1602 68.1979 75.1016 67.7031 74.9844C67.2148 74.8672 66.7428 74.6816 66.2871 74.4277C65.8379 74.1803 65.4635 73.8581 65.1641 73.4609L66.3262 71.9375C66.6777 72.3477 67.0749 72.6569 67.5176 72.8652C67.9603 73.0801 68.4388 73.1875 68.9531 73.1875C69.474 73.1875 69.9167 73.0898 70.2812 72.8945C70.6523 72.7057 70.9355 72.4258 71.1309 72.0547C71.3327 71.6901 71.4336 71.2409 71.4336 70.707V62.8457L71.6777 60.4336ZM64.5391 65.8438V65.6387C64.5391 64.8314 64.6367 64.099 64.832 63.4414C65.0273 62.7773 65.3073 62.2077 65.6719 61.7324C66.043 61.2572 66.4889 60.8893 67.0098 60.6289C67.5371 60.3685 68.1296 60.2383 68.7871 60.2383C69.4837 60.2383 70.0697 60.3652 70.5449 60.6191C71.0267 60.873 71.4238 61.2344 71.7363 61.7031C72.0553 62.1719 72.3027 62.7285 72.4785 63.373C72.6608 64.0111 72.8008 64.7142 72.8984 65.4824V66.0391C72.8073 66.7878 72.6608 67.4746 72.459 68.0996C72.2637 68.7246 72.0033 69.2715 71.6777 69.7402C71.3522 70.2025 70.9486 70.5605 70.4668 70.8145C69.985 71.0684 69.4186 71.1953 68.7676 71.1953C68.1165 71.1953 67.5306 71.0618 67.0098 70.7949C66.4889 70.528 66.043 70.1536 65.6719 69.6719C65.3073 69.1901 65.0273 68.6237 64.832 67.9727C64.6367 67.3216 64.5391 66.612 64.5391 65.8438ZM67.1172 65.6387V65.8438C67.1172 66.2995 67.1628 66.7259 67.2539 67.123C67.3451 67.5202 67.485 67.8717 67.6738 68.1777C67.8626 68.4772 68.1003 68.7116 68.3867 68.8809C68.6732 69.0501 69.015 69.1348 69.4121 69.1348C69.946 69.1348 70.3822 69.0241 70.7207 68.8027C71.0658 68.5749 71.3262 68.2656 71.502 67.875C71.6842 67.4779 71.8014 67.0319 71.8535 66.5371V65.0039C71.821 64.6133 71.7493 64.252 71.6387 63.9199C71.5345 63.5879 71.388 63.3014 71.1992 63.0605C71.0104 62.8197 70.7695 62.6309 70.4766 62.4941C70.1836 62.3574 69.8353 62.2891 69.4316 62.2891C69.041 62.2891 68.6992 62.377 68.4062 62.5527C68.1133 62.722 67.8724 62.9596 67.6836 63.2656C67.4948 63.5716 67.3516 63.9264 67.2539 64.3301C67.1628 64.7337 67.1172 65.1699 67.1172 65.6387ZM82.2562 68.1094C82.2562 67.888 82.1977 67.6895 82.0805 67.5137C81.9633 67.3379 81.7419 67.1784 81.4164 67.0352C81.0974 66.8854 80.6286 66.7454 80.0102 66.6152C79.4633 66.498 78.9587 66.3516 78.4965 66.1758C78.0342 66 77.6371 65.7884 77.3051 65.541C76.973 65.2871 76.7126 64.9909 76.5238 64.6523C76.3415 64.3073 76.2504 63.9102 76.2504 63.4609C76.2504 63.0247 76.3448 62.6146 76.5336 62.2305C76.7224 61.8398 76.9958 61.498 77.3539 61.2051C77.712 60.9056 78.1482 60.6712 78.6625 60.502C79.1768 60.3262 79.7562 60.2383 80.4008 60.2383C81.2992 60.2383 82.0707 60.3848 82.7152 60.6777C83.3663 60.9707 83.8643 61.3743 84.2094 61.8887C84.5544 62.3965 84.727 62.9694 84.727 63.6074H82.1488C82.1488 63.3275 82.0837 63.0736 81.9535 62.8457C81.8298 62.6178 81.6378 62.4355 81.3773 62.2988C81.1169 62.1556 80.7881 62.084 80.391 62.084C80.0329 62.084 79.7302 62.1426 79.4828 62.2598C79.2419 62.377 79.0596 62.5299 78.9359 62.7188C78.8122 62.9076 78.7504 63.1159 78.7504 63.3438C78.7504 63.513 78.7829 63.666 78.848 63.8027C78.9197 63.9329 79.0336 64.0534 79.1898 64.1641C79.3461 64.2747 79.5577 64.3757 79.8246 64.4668C80.098 64.5579 80.4333 64.6458 80.8305 64.7305C81.6182 64.8867 82.3051 65.0951 82.891 65.3555C83.4835 65.6094 83.9457 65.9479 84.2777 66.3711C84.6098 66.7943 84.7758 67.3346 84.7758 67.9922C84.7758 68.4609 84.6749 68.8906 84.473 69.2812C84.2712 69.6654 83.9783 70.0007 83.5941 70.2871C83.21 70.5736 82.751 70.7982 82.2172 70.9609C81.6833 71.1172 81.0811 71.1953 80.4105 71.1953C79.4405 71.1953 78.6202 71.0228 77.9496 70.6777C77.279 70.3262 76.7712 69.8835 76.4262 69.3496C76.0811 68.8092 75.9086 68.2493 75.9086 67.6699H78.3793C78.3988 68.0801 78.5095 68.4089 78.7113 68.6562C78.9131 68.9036 79.1671 69.0827 79.473 69.1934C79.7855 69.2975 80.1143 69.3496 80.4594 69.3496C80.85 69.3496 81.1788 69.2975 81.4457 69.1934C81.7126 69.0827 81.9145 68.9362 82.0512 68.7539C82.1879 68.5651 82.2562 68.3503 82.2562 68.1094Z" fill="#3F2D3B"/>
<path d="M64.991 14.1095C61.1919 14.1095 59.6387 11.3973 61.5277 8.07065C62.6192 6.14246 61.9685 3.68454 60.0585 2.58272L56.4273 0.485017C54.7691 -0.510862 52.6282 0.0824278 51.6417 1.75635L51.4108 2.15894C49.5217 5.4856 46.4153 5.4856 44.5052 2.15894L44.2744 1.75635C43.3298 0.0824278 41.1889 -0.510862 39.5307 0.485017L35.8995 2.58272C33.9895 3.68454 33.3388 6.16364 34.4303 8.09184C36.3403 11.3973 34.7871 14.1095 30.988 14.1095C28.8051 14.1095 27 15.9105 27 18.1354V21.8646C27 24.0683 28.7841 25.8905 30.988 25.8905C34.7871 25.8905 36.3403 28.6027 34.4303 31.9294C33.3388 33.8575 33.9895 36.3155 35.8995 37.4173L39.5307 39.515C41.1889 40.5109 43.3298 39.9176 44.3163 38.2437L44.5472 37.8411C46.4363 34.5144 49.5427 34.5144 51.4528 37.8411L51.6837 38.2437C52.6702 39.9176 54.8111 40.5109 56.4693 39.515L60.1004 37.4173C62.0105 36.3155 62.6612 33.8364 61.5697 31.9294C59.6597 28.6027 61.2129 25.8905 65.012 25.8905C67.1949 25.8905 69 24.0895 69 21.8646V18.1354C68.979 15.9317 67.1949 14.1095 64.991 14.1095ZM47.9895 26.8864C44.2324 26.8864 41.1679 23.7928 41.1679 20C41.1679 16.2072 44.2324 13.1136 47.9895 13.1136C51.7466 13.1136 54.8111 16.2072 54.8111 20C54.8111 23.7928 51.7466 26.8864 47.9895 26.8864Z" fill="#3F2D3B"/>
</svg>
