<svg width="183" height="183" viewBox="0 0 183 183" fill="none" xmlns="http://www.w3.org/2000/svg">
<g id="User Icon">
<path id="Subtract" fill-rule="evenodd" clip-rule="evenodd" d="M31.2467 157.218C43.4907 140.751 65.5161 129.758 90.5844 129.758C115.978 129.758 138.249 141.038 150.394 157.862C168.776 141.526 180.358 117.705 180.358 91.1788C180.358 41.9267 140.431 2 91.1788 2C41.9267 2 2 41.9267 2 91.1788C2 117.358 13.2808 140.903 31.2467 157.218ZM90.583 110.627C111.714 110.627 128.844 93.4971 128.844 72.3659C128.844 51.2347 111.714 34.1044 90.583 34.1044C69.4518 34.1044 52.3215 51.2347 52.3215 72.3659C52.3215 93.4971 69.4518 110.627 90.583 110.627Z" fill="#292D32"/>
<circle id="Ellipse 4" cx="91.1788" cy="91.1788" r="90.1788" stroke="black" stroke-width="2"/>
</g>
</svg>
